<?xml version="1.0" encoding="UTF-8" standalone="no"?>
<!-- Created with Inkscape (http://www.inkscape.org/) -->

<svg
   width="155.14703mm"
   height="67.649071mm"
   viewBox="0 0 155.14704 67.649071"
   version="1.1"
   id="svg5"
   inkscape:version="1.1.2 (08b2f3d93c, 2022-04-05)"
   sodipodi:docname="dna_logo_navbar.svg"
   xmlns:inkscape="http://www.inkscape.org/namespaces/inkscape"
   xmlns:sodipodi="http://sodipodi.sourceforge.net/DTD/sodipodi-0.dtd"
   xmlns="http://www.w3.org/2000/svg"
   xmlns:svg="http://www.w3.org/2000/svg">
  <sodipodi:namedview
     id="namedview7"
     pagecolor="#ffffff"
     bordercolor="#666666"
     borderopacity="1.0"
     inkscape:pageshadow="2"
     inkscape:pageopacity="0.0"
     inkscape:pagecheckerboard="0"
     inkscape:document-units="mm"
     showgrid="false"
     inkscape:zoom="1.0633188"
     inkscape:cx="395.45996"
     inkscape:cy="170.22177"
     inkscape:window-width="1920"
     inkscape:window-height="1043"
     inkscape:window-x="1920"
     inkscape:window-y="0"
     inkscape:window-maximized="1"
     inkscape:current-layer="g42" />
  <defs
     id="defs2">
    <style
       id="style9">.cls-1{fill:#0b1c1d;}.cls-2{fill:url(#linear-gradient);}.cls-3{fill:#fff;}</style>
    <linearGradient
       id="linear-gradient"
       x1="448.10999"
       y1="892.85999"
       x2="390.17999"
       y2="999.44"
       gradientTransform="translate(-235,-827.38)"
       gradientUnits="userSpaceOnUse">
      <stop
         offset="0"
         stop-color="#62bf7a"
         id="stop11" />
      <stop
         offset="1"
         stop-color="#405dab"
         id="stop13" />
    </linearGradient>
  </defs>
  <g
     inkscape:label="Layer 1"
     inkscape:groupmode="layer"
     id="layer1"
     transform="translate(-31.740401,-110.63196)">
    <g
       id="g42"
       transform="matrix(0.65188243,0,0,0.71967093,-12.21395,58.981181)">
      <rect
         class="cls-2"
         x="135.48"
         y="71.769997"
         width="97.330002"
         height="94"
         rx="10.89"
         id="rect20"
         style="fill:url(#linear-gradient)" />
      <g
         id="Layer_2"
         data-name="Layer 2"
         transform="translate(-0.513193,1.2710351)">
        <path
           class="cls-3"
           d="m 293.29,398.63 v 27.29 c 0,1.32 -0.3,1.65 -1.61,1.63 -6.08,-0.08 -12.15,0 -18.23,0 -0.87,0 -1.13,-0.19 -1.13,-1.1 V 364.8 c 0,-0.89 0.21,-1.14 1.11,-1.14 h 15.51 a 2,2 0 0 1 1.71,0.83 q 11.06,13.33 22.14,26.63 l 1,1.19 c 0.4,-0.45 0.21,-1 0.21,-1.43 v -25.83 c 0,-1.16 0.33,-1.41 1.44,-1.4 q 9.12,0.08 18.23,0 c 1,0 1.3,0.16 1.3,1.24 q -0.06,30.75 0,61.51 c 0,0.84 -0.14,1.16 -1.08,1.15 -5.22,0 -10.43,-0.06 -15.65,0 a 2.16,2.16 0 0 1 -1.85,-1.1 q -11.24,-13.53 -22.49,-27 z"
           transform="translate(-119.5,-277.23)"
           id="path22" />
        <path
           class="cls-3"
           d="m 187.46,395 v -26.49 c 0,-1.15 0.31,-1.42 1.43,-1.41 9.66,0.06 19.33,-0.19 29,0.15 9.08,0.31 17.11,3.45 23,10.81 4.41,5.5 5.69,11.94 5.38,18.83 -0.66,14.48 -10.91,23.32 -24,25.52 a 44.76,44.76 0 0 1 -7.58,0.56 h -26 c -1.06,0 -1.25,-0.3 -1.25,-1.29 0.04,-8.87 0.02,-17.76 0.02,-26.68 z m 17.65,0 v 12.16 c 0,0.66 0,1.11 0.9,1.08 2.86,-0.07 5.72,0 8.57,-0.09 a 11.57,11.57 0 0 0 11,-8.58 16.91,16.91 0 0 0 0.55,-6.09 c -0.6,-7.05 -5.28,-11.44 -12.33,-11.59 -2.45,0 -4.9,0 -7.34,-0.12 -1,0 -1.4,0.22 -1.38,1.34 0.08,3.94 0,7.9 0,11.87 z"
           transform="translate(-119.5,-277.23)"
           id="path24" />
        <path
           class="cls-3"
           d="m 358.53,423.94 c 0.56,-1.33 1,-2.53 1.57,-3.72 q 11.06,-25.39 22.09,-50.8 a 1.81,1.81 0 0 1 2,-1.34 c 5.35,0.08 10.71,0.05 16.06,0 a 1.37,1.37 0 0 1 1.52,0.93 q 11.66,26.91 23.37,53.79 c 0.14,0.32 0.42,0.62 0.24,1.12 h -18.26 a 1.12,1.12 0 0 1 -1.28,-0.86 c -0.94,-2.6 -2,-5.16 -2.93,-7.77 a 1.36,1.36 0 0 0 -1.53,-1.11 q -9.45,0.06 -18.91,0 a 1.31,1.31 0 0 0 -1.45,1.05 c -0.93,2.6 -2,5.18 -3,7.76 -0.16,0.43 -0.21,0.93 -0.93,0.93 z m 33.36,-40.14 c -1.78,4.64 -3.44,8.93 -5.09,13.23 -0.29,0.76 0.22,0.7 0.69,0.7 h 9.73 z"
           transform="translate(-119.5,-277.23)"
           id="path26" />
      </g>
    </g>
  </g>
</svg>
