<?xml version="1.0" encoding="UTF-8" standalone="no"?>
<!-- Generator: Adobe Illustrator 25.0.1, SVG Export Plug-In . SVG Version: 6.00 Build 0)  -->

<svg
   version="1.1"
   id="Layer_1"
   x="0px"
   y="0px"
   viewBox="0 0 815.69615 671.70635"
   xml:space="preserve"
   sodipodi:docname="dna_logo.svg"
   width="815.69617"
   height="671.70636"
   inkscape:version="1.1.2 (08b2f3d93c, 2022-04-05)"
   xmlns:inkscape="http://www.inkscape.org/namespaces/inkscape"
   xmlns:sodipodi="http://sodipodi.sourceforge.net/DTD/sodipodi-0.dtd"
   xmlns:xlink="http://www.w3.org/1999/xlink"
   xmlns="http://www.w3.org/2000/svg"
   xmlns:svg="http://www.w3.org/2000/svg"><defs
   id="defs95" /><sodipodi:namedview
   id="namedview93"
   pagecolor="#ffffff"
   bordercolor="#666666"
   borderopacity="1.0"
   inkscape:pageshadow="2"
   inkscape:pageopacity="0.0"
   inkscape:pagecheckerboard="0"
   showgrid="false"
   inkscape:zoom="0.5"
   inkscape:cx="-155"
   inkscape:cy="602"
   inkscape:window-width="1920"
   inkscape:window-height="1043"
   inkscape:window-x="1920"
   inkscape:window-y="0"
   inkscape:window-maximized="1"
   inkscape:current-layer="Layer_1" />
<style
   type="text/css"
   id="style2">
	.st0{fill:#FFFFFF;}
	.st1{fill:url(#SVGID_1_);}
	.st2{fill:url(#SVGID_2_);}
	.st3{fill:#005B50;}
	.st4{fill:url(#SVGID_3_);}
	.st5{fill:url(#SVGID_4_);}
	.st6{fill:url(#SVGID_5_);}
	.st7{fill:#ECF955;}
	.st8{fill:#005C01;}
	.st9{fill:url(#SVGID_6_);}
	.st10{fill:#5EFAF7;}
	.st11{fill:url(#SVGID_7_);}
	.st12{fill:url(#SVGID_8_);}
	.st13{fill:url(#SVGID_9_);}
</style>

<image
   style="overflow:visible;opacity:0.75;enable-background:new"
   width="815.69617"
   height="671.70636"
   xlink:href="../../../../F0CA07A4CA0765E6/Users/jack/Downloads/Telegram%20Desktop/66A624C8.png"
   id="image6"
   x="0"
   y="0">
</image>
<linearGradient
   id="SVGID_1_"
   gradientUnits="userSpaceOnUse"
   x1="-1408.8243"
   y1="-456.03671"
   x2="-1602.6843"
   y2="-528.57672"
   gradientTransform="matrix(-1.6101407,0.4252152,-0.41498469,-1.649835,-2340.8889,283.11346)">
	<stop
   offset="0"
   style="stop-color:#3EDC81"
   id="stop8" />
	<stop
   offset="1"
   style="stop-color:#114FEE"
   id="stop10" />
</linearGradient>
<path
   class="st1"
   d="m 291.55824,473.26967 c 3.48587,-6.12309 1.49394,-14.11714 -4.48184,-17.85904 v 0 l -50.62813,-31.29582 -0.49799,-0.34018 v 0 l -12.44953,22.45136 0.49798,0.34017 v 0 l 50.62814,31.29583 c 2.82188,1.70087 6.14176,2.21112 9.29564,1.3607 v 0 c 3.31989,-0.85043 5.97579,-2.89146 7.63573,-5.95302 z"
   id="path13"
   style="fill:url(#SVGID_1_);strokeWidth:1.68028" />
<linearGradient
   id="SVGID_2_"
   gradientUnits="userSpaceOnUse"
   x1="1251.1978"
   y1="323.75101"
   x2="882.26782"
   y2="185.71091"
   gradientTransform="matrix(1.4275472,0.85043039,-0.82996941,1.4627403,-1041.7877,-927.52527)">
	<stop
   offset="0"
   style="stop-color:#FFFF00"
   id="stop15" />
	<stop
   offset="1"
   style="stop-color:#008C31"
   id="stop17" />
</linearGradient>
<path
   class="st2"
   d="m 362.76961,458.98245 c 3.48587,-6.1231 1.49394,-14.11714 -4.48183,-17.85905 l -40.00454,-24.66248 -50.62812,-31.29583 c -5.8098,-3.5718 -13.11351,-1.53078 -16.59939,4.42223 l -0.16599,0.34018 v 0 c -3.48587,6.1231 -1.49395,14.11715 4.48183,17.85904 v 0 l 90.46666,55.95831 c 2.82189,1.70087 6.14178,2.21113 9.29566,1.36069 3.31988,-1.02052 5.97578,-3.23164 7.63572,-6.12309 z m -15.10545,-69.7353 c 3.48587,-6.12309 1.49395,-14.11714 -4.48183,-17.85904 v 0 l -50.46214,-31.29582 -0.49798,-0.34017 v 0 l -12.44953,22.45136 0.49797,0.34017 v 0 l 50.46214,31.29582 c 2.82189,1.70087 6.14176,2.21113 9.29566,1.3607 v 0 c 3.15388,-0.85042 5.97577,-3.06154 7.63571,-5.95302 z"
   id="path20"
   style="fill:url(#SVGID_2_);strokeWidth:1.68028" />
<path
   class="st3"
   d="m 307.32765,439.76272 -50.62813,-31.29583 c -5.97577,-3.7419 -7.80171,-11.56587 -4.48183,-17.85904 3.15388,-5.95302 10.45761,-8.16413 16.43339,-4.9325 0,0 0,0 0,0 l 0.49798,0.17009 50.62813,31.29584 z m 24.89908,-45.0728 12.44954,-22.45136 -50.62813,-31.29585 -0.49797,-0.17009 -12.44954,22.45137 0.49798,0.34017 z"
   id="path22"
   style="strokeWidth:1.68028" />
<linearGradient
   id="SVGID_3_"
   gradientUnits="userSpaceOnUse"
   x1="966.01788"
   y1="1362.6577"
   x2="772.1579"
   y2="1290.1178"
   gradientTransform="matrix(1.6101407,-0.4252152,0.41498469,1.649835,-1467.1469,-1597.8516)">
	<stop
   offset="0"
   style="stop-color:#FFFF00"
   id="stop24" />
	<stop
   offset="1"
   style="stop-color:#008C31"
   id="stop26" />
</linearGradient>
<path
   class="st4"
   d="m 478.63333,202.66273 c -3.48588,6.1231 -1.49394,14.11714 4.48184,17.85904 v 0 l 50.62812,31.29584 0.49799,0.34017 v 0 l 12.44953,-22.45136 -0.49797,-0.34017 v 0 l -50.79413,-31.46592 c -2.82191,-1.70087 -6.14178,-2.21112 -9.29566,-1.36069 v 0 c -3.15388,1.02051 -5.80978,3.23163 -7.46972,6.12309 z"
   id="path29"
   style="fill:url(#SVGID_3_);strokeWidth:1.68028" />
<linearGradient
   id="SVGID_4_"
   gradientUnits="userSpaceOnUse"
   x1="1196.1112"
   y1="574.93408"
   x2="1078.6611"
   y2="-29.0359"
   gradientTransform="matrix(1.4275472,0.85043039,-0.82996941,1.4627403,-1041.7877,-927.52527)">
	<stop
   offset="0"
   style="stop-color:#FFFF00"
   id="stop31" />
	<stop
   offset="1"
   style="stop-color:#008C31"
   id="stop33" />
</linearGradient>
<path
   class="st5"
   d="m 361.27567,101.80169 c -7.30374,13.43681 -6.80576,29.93516 1.16194,42.8617 v 0 c -31.20683,70.7558 -24.40109,118.54999 -7.9677,160.73133 h 3.98386 l 1.32795,-0.17009 v 0 c 9.62764,-0.68034 19.08929,-1.0205 28.71693,-1.36068 h 4.97982 c -16.1014,-36.90868 -25.39706,-78.06951 1.32795,-140.83126 v 0 c 13.44551,-0.51026 25.72904,-8.16415 32.20282,-20.41034 v 0 c 10.6236,-19.21973 4.48184,-44.052289 -13.6115,-55.107881 v 0 c -8.63167,-5.442754 -19.08929,-6.973529 -28.88294,-4.252152 -9.95964,2.721377 -18.25932,9.524822 -23.23913,18.539373 z m 23.23913,411.60829 c -13.4455,0.34018 -25.72904,7.99405 -32.20281,20.07017 v 0 c -10.62361,19.21973 -4.48183,44.05228 13.6115,55.27797 v 0 c 17.76134,10.8855 40.6685,5.10257 51.2921,-13.09663 0,0 0,0 0,0 0.33199,-0.51025 0.49799,-0.85042 0.82998,-1.36069 v 0 c 7.30373,-13.43679 6.97174,-29.93515 -1.16197,-42.86169 v 0 c 31.20685,-70.7558 24.40111,-118.54999 7.96771,-160.73134 h -0.33199 l -0.99596,0.17008 h -1.32795 -0.99596 -0.166 l -1.32795,0.17009 v 0 c -9.62764,0.68035 -19.08929,1.02053 -28.71693,1.3607 h -5.14582 c 16.10141,36.90867 25.39707,78.0695 -1.32795,140.83126 v 0 z"
   id="path36"
   style="fill:url(#SVGID_4_);strokeWidth:1.68028" />
<linearGradient
   id="SVGID_5_"
   gradientUnits="userSpaceOnUse"
   x1="1281.0715"
   y1="207.9565"
   x2="912.14148"
   y2="69.916496"
   gradientTransform="matrix(1.4275472,0.85043039,-0.82996941,1.4627403,-1041.7877,-927.52527)">
	<stop
   offset="0"
   style="stop-color:#3EDC81"
   id="stop38" />
	<stop
   offset="1"
   style="stop-color:#114FEE"
   id="stop40" />
</linearGradient>
<path
   class="st6"
   d="m 407.42196,217.12005 c -3.48587,6.12309 -1.49394,14.11715 4.48183,17.85903 l 40.00453,24.66249 50.62812,31.29583 c 5.8098,3.57182 13.11353,1.70087 16.5994,-4.25215 l 0.16598,-0.34016 v 0 c 3.48588,-6.12311 1.49396,-14.11714 -4.48182,-17.85905 v 0 l -90.46667,-55.95831 c -2.82189,-1.70086 -6.14177,-2.21113 -9.29565,-1.36069 -3.31988,0.68035 -5.97578,2.89147 -7.63572,5.95301 z m 15.10544,69.73528 c -3.48587,6.12311 -1.49395,14.11715 4.48184,17.85905 v 0 l 50.62813,31.29583 0.49798,0.34019 v 0 l 12.44953,-22.62147 -0.49797,-0.34017 v 0 l -50.62813,-31.29582 c -2.8219,-1.70087 -6.14177,-2.21113 -9.29565,-1.3607 v 0 c -3.31988,0.85044 -5.97579,3.06155 -7.63573,6.12309 z"
   id="path43"
   style="fill:url(#SVGID_5_);strokeWidth:1.68028" />
<path
   class="st3"
   d="m 462.86392,236.33977 50.62813,31.29585 c 5.97578,3.74188 7.80171,11.56585 4.48183,17.85904 -3.15388,5.95301 -10.45762,8.16412 -16.2674,4.93249 0,0 0,0 0,0 l -0.49799,-0.34017 -50.62812,-31.29585 z m -24.89908,44.90273 -12.44955,22.45136 50.62814,31.29583 0.49797,0.34018 12.44954,-22.45136 -0.49798,-0.34017 z"
   id="path45"
   style="strokeWidth:1.68028" />
<path
   class="st7"
   d="m 394.80642,162.52243 c -26.72501,62.76175 -17.42935,103.7525 -1.32795,140.83126 l -4.97982,0.17009 -11.28758,0.34017 c -34.02874,-76.53873 3.15389,-149.16549 3.15389,-149.16549 63.40966,-19.72999 33.03278,-67.354078 33.03278,-67.354078 18.09334,11.225679 24.2351,35.888158 13.6115,55.107878 -6.47378,12.2462 -18.75731,19.72998 -32.20282,20.07017 z"
   id="path47"
   style="strokeWidth:1.68028" />
<path
   class="st8"
   d="m 384.5148,513.40998 c 26.72502,-62.76175 17.42936,-103.7525 1.32795,-140.83125 l 4.81382,-0.17009 11.28759,-0.34017 c 34.02874,76.53872 -3.15388,149.16547 -3.15388,149.16547 -63.40967,19.73 -33.03278,67.52418 -33.03278,67.52418 -18.25933,-11.22569 -24.23511,-35.88816 -13.6115,-55.27797 6.63976,-12.07612 18.9233,-19.72999 32.3688,-20.07017 z"
   id="path49"
   style="strokeWidth:1.68028" />
<linearGradient
   id="SVGID_6_"
   gradientUnits="userSpaceOnUse"
   x1="58573.047"
   y1="-42226.805"
   x2="46006.098"
   y2="-45765.574"
   gradientTransform="matrix(0.04724405,-0.0161316,-0.01574349,-0.04840874,-2733.4521,-976.10199)">
	<stop
   offset="0"
   style="stop-color:#3EDC81"
   id="stop51" />
	<stop
   offset="1"
   style="stop-color:#114FEE"
   id="stop53" />
</linearGradient>
<path
   class="st9"
   d="m 549.18073,218.14057 c -53.61604,97.11915 -106.90006,98.9901 -160.18408,100.69094 v 0 c -9.46167,0.34018 -18.75732,0.68036 -28.21898,1.3607 v 0 c -53.948,3.91199 -108.06199,20.07017 -162.17601,118.37991 v 0 c -4.97982,9.18464 -2.15791,20.7505 6.47377,26.19325 v 0 c 8.4657,5.27267 19.42128,2.38121 24.4011,-6.29318 0,0 0,0 0,0 l 0.33198,-0.68035 v 0 c 53.45004,-97.11915 106.90005,-98.82 160.18409,-100.69096 v 0 c 9.46166,-0.34017 18.75731,-0.68033 28.21896,-1.36067 v 0 c 53.948,-3.91199 108.062,-20.07017 162.17601,-118.37992 v 0 c 5.14582,-9.18464 2.15792,-20.75051 -6.47376,-26.19325 v 0 c -4.14984,-2.55129 -9.12966,-3.23162 -13.77749,-2.04104 v 0 c -4.48183,1.36069 -8.46568,4.59233 -10.95559,9.01457 z"
   id="path56"
   style="fill:url(#SVGID_6_);strokeWidth:1.68028" />
<path
   class="st10"
   d="m 574.0798,211.16704 c 8.63168,5.61283 11.61958,17.17869 6.47376,26.19325 -54.114,98.13967 -108.22799,114.29784 -162.17601,118.37992 -6.63975,0.51026 -13.2795,0.85042 -19.91927,1.0205 -5.47779,-11.56585 -8.79767,-18.87954 -8.79767,-18.87954 C 521.79174,353.52909 574.0798,211.16704 574.0798,211.16704 Z"
   id="path58"
   style="strokeWidth:1.68028" />
<path
   class="st3"
   d="m 205.24142,464.76537 c -8.63168,-5.61284 -11.61958,-17.17869 -6.47377,-26.19325 54.11402,-98.13966 108.22801,-114.29783 162.17603,-118.37991 6.63975,-0.51026 13.2795,-0.85043 19.91926,-1.02052 5.47779,11.56586 8.96366,18.87956 8.96366,18.87956 C 257.3635,322.40333 205.24142,464.76537 205.24142,464.76537 Z"
   id="path60"
   style="strokeWidth:1.68028" />
<linearGradient
   id="SVGID_7_"
   gradientUnits="userSpaceOnUse"
   x1="58464.332"
   y1="-42046.684"
   x2="46915.039"
   y2="-45462.543"
   gradientTransform="matrix(0.04724405,-0.0161316,-0.01574349,-0.04840874,-2733.4521,-976.10199)">
	<stop
   offset="0"
   style="stop-color:#3EDC81"
   id="stop62" />
	<stop
   offset="1"
   style="stop-color:#114FEE"
   id="stop64" />
</linearGradient>
<path
   class="st11"
   d="m 569.09998,182.08232 c -5.1458,9.18464 -2.15791,20.7505 6.47377,26.36334 v 0 c 8.4657,5.27267 19.42129,2.5513 24.56709,-6.1231 l 0.33199,-0.68033 v 0 c 5.14581,-9.18466 2.15792,-20.75051 -6.47376,-26.19326 v 0 c -4.14985,-2.5513 -9.12967,-3.23164 -13.77749,-2.04104 -4.64783,1.1906 -8.63168,4.25215 -11.1216,8.67439 z"
   id="path67"
   style="fill:url(#SVGID_7_);strokeWidth:1.68028" />
<linearGradient
   id="SVGID_8_"
   gradientUnits="userSpaceOnUse"
   x1="57665.047"
   y1="-42506.645"
   x2="46116.395"
   y2="-45922.316"
   gradientTransform="matrix(0.04724405,-0.0161316,-0.01574349,-0.04840874,-2733.4521,-976.10199)">
	<stop
   offset="0"
   style="stop-color:#3EDC81"
   id="stop69" />
	<stop
   offset="1"
   style="stop-color:#114FEE"
   id="stop71" />
</linearGradient>
<path
   class="st12"
   d="m 178.8484,474.46028 c -5.14581,9.18464 -2.15793,20.7505 6.47375,26.19325 v 0 c 8.46569,5.27267 19.42129,2.55129 24.40111,-6.12308 0,0 0,0 0,0 0.166,-0.17009 0.33199,-0.51028 0.33199,-0.68037 v 0 c 4.97982,-9.18463 2.15791,-20.7505 -6.47377,-26.36333 v 0 c -4.14985,-2.55129 -9.12966,-3.23164 -13.77749,-2.04103 v 0 c -4.48184,1.53077 -8.46569,4.59232 -10.95559,9.01456 z"
   id="path74"
   style="fill:url(#SVGID_8_);strokeWidth:1.68028" />
<image
   style="overflow:visible;opacity:0.5;enable-background:new"
   width="212.47217"
   height="212.60759"
   xlink:href="../../../../F0CA07A4CA0765E6/Users/jack/Downloads/Telegram%20Desktop/66A624C9.png"
   id="image76"
   x="272.6452"
   y="235.6409">
</image>
<linearGradient
   id="SVGID_9_"
   gradientUnits="userSpaceOnUse"
   x1="341.14249"
   y1="694.64423"
   x2="283.21259"
   y2="801.23401"
   gradientTransform="matrix(1.6599388,0,0,1.7008608,-141.1878,-930.19563)">
	<stop
   offset="0"
   style="stop-color:#3EDC81"
   id="stop78" />
	<stop
   offset="1"
   style="stop-color:#114FEE"
   id="stop80" />
</linearGradient>
<path
   class="st13"
   d="m 314.2994,262.02277 h 125.49137 c 9.95962,0 18.09332,8.33422 18.09332,18.53938 v 122.80214 c 0,10.20517 -8.1337,18.53939 -18.09332,18.53939 H 314.2994 c -9.95965,0 -18.09334,-8.33422 -18.09334,-18.53939 V 280.56215 c 0,-10.20516 8.13369,-18.53938 18.09334,-18.53938 z"
   id="path83"
   style="fill:url(#SVGID_9_);strokeWidth:1.68028" />
<g
   id="Layer_2_1_"
   transform="matrix(1.6599388,0,0,1.7008607,50.535131,5.5329817)">
	<path
   class="st0"
   d="m 186.3,200.4 v 27.3 c 0,1.3 -0.3,1.6 -1.6,1.6 -6.1,-0.1 -12.1,0 -18.2,0 -0.9,0 -1.1,-0.2 -1.1,-1.1 v -61.7 c 0,-0.9 0.2,-1.1 1.1,-1.1 H 182 c 0.7,0 1.3,0.3 1.7,0.8 7.4,8.9 14.8,17.8 22.1,26.6 l 1,1.2 c 0.4,-0.5 0.2,-1 0.2,-1.4 v -25.8 c 0,-1.2 0.3,-1.4 1.4,-1.4 6.1,0.1 12.2,0.1 18.2,0 1,0 1.3,0.2 1.3,1.2 0,20.5 0,41 0,61.5 0,0.8 -0.1,1.2 -1.1,1.1 -5.2,0 -10.4,-0.1 -15.6,0 -0.8,0 -1.5,-0.4 -1.9,-1.1 -7.5,-9 -15,-18 -22.5,-27 z"
   id="path85" />
	<path
   class="st0"
   d="m 80.5,196.8 v -26.5 c 0,-1.1 0.3,-1.4 1.4,-1.4 9.7,0.1 19.3,-0.2 29,0.1 9.1,0.3 17.1,3.5 23,10.8 4.4,5.5 5.7,11.9 5.4,18.8 -0.7,14.5 -10.9,23.3 -24,25.5 -2.5,0.4 -5,0.6 -7.6,0.6 h -26 c -1.1,0 -1.2,-0.3 -1.2,-1.3 0,-8.8 0,-17.7 0,-26.6 z m 17.6,0 V 209 c 0,0.7 0,1.1 0.9,1.1 2.9,-0.1 5.7,0 8.6,-0.1 5.2,-0.1 9.7,-3.6 11,-8.6 0.6,-2 0.7,-4 0.6,-6.1 -0.6,-7 -5.3,-11.4 -12.3,-11.6 -2.4,0 -4.9,0 -7.3,-0.1 -1,0 -1.4,0.2 -1.4,1.3 0,4 -0.1,7.9 -0.1,11.9 z"
   id="path87" />
	<path
   class="st0"
   d="m 251.6,225.7 c 0.6,-1.3 1,-2.5 1.6,-3.7 7.4,-16.9 14.7,-33.9 22.1,-50.8 0.2,-0.9 1.1,-1.5 2,-1.3 5.4,0.1 10.7,0 16.1,0 0.7,-0.1 1.3,0.3 1.5,0.9 7.8,17.9 15.6,35.9 23.4,53.8 0.1,0.3 0.4,0.6 0.2,1.1 h -18.3 c -0.6,0.1 -1.2,-0.3 -1.3,-0.9 -0.9,-2.6 -2,-5.2 -2.9,-7.8 -0.1,-0.7 -0.8,-1.2 -1.5,-1.1 -6.3,0 -12.6,0 -18.9,0 -0.7,-0.1 -1.3,0.4 -1.5,1 -0.9,2.6 -2,5.2 -3,7.8 -0.2,0.4 -0.2,0.9 -0.9,0.9 z m 33.3,-40.1 c -1.8,4.6 -3.4,8.9 -5.1,13.2 -0.3,0.8 0.2,0.7 0.7,0.7 h 9.7 z"
   id="path89" />
</g>
</svg>
